<?xml version="1.0" encoding="UTF-8" standalone="no"?>
<!DOCTYPE svg PUBLIC "-//W3C//DTD SVG 1.1//EN"
 "http://www.w3.org/Graphics/SVG/1.1/DTD/svg11.dtd">
<!-- Generated by graphviz version 2.47.0 (20210316.0004)
 -->
<!-- Title: dependencies Pages: 1 -->
<svg width="1243pt" height="279pt"
 viewBox="0.00 0.00 1243.00 279.00" xmlns="http://www.w3.org/2000/svg" xmlns:xlink="http://www.w3.org/1999/xlink">
<g id="graph0" class="graph" transform="scale(1 1) rotate(0) translate(4 275)">
<title>dependencies</title>
<polygon fill="white" stroke="transparent" points="-4,4 -4,-275 1239,-275 1239,4 -4,4"/>
<text text-anchor="start" x="596.51" y="-42.4" font-family="Times-12" font-weight="bold" font-size="14.00">Legend</text>
<polygon fill="#ffffb3" stroke="transparent" points="383.5,-10 383.5,-30 403.5,-30 403.5,-10 383.5,-10"/>
<text text-anchor="start" x="407.13" y="-15.4" font-family="Times-12" font-size="14.00"> &#160;Declarations</text>
<polygon fill="#8dd3c7" stroke="transparent" points="496.5,-10 496.5,-30 516.5,-30 516.5,-10 496.5,-10"/>
<text text-anchor="start" x="520.23" y="-15.4" font-family="Times-12" font-size="14.00"> &#160;Module</text>
<polygon fill="#80b1d3" stroke="transparent" points="582.5,-10 582.5,-30 602.5,-30 602.5,-10 582.5,-10"/>
<text text-anchor="start" x="606.28" y="-15.4" font-family="Times-12" font-size="14.00"> &#160;Bootstrap</text>
<polygon fill="#fdb462" stroke="transparent" points="679.5,-10 679.5,-30 699.5,-30 699.5,-10 679.5,-10"/>
<text text-anchor="start" x="703.17" y="-15.4" font-family="Times-12" font-size="14.00"> &#160;Providers</text>
<polygon fill="#fb8072" stroke="transparent" points="775.5,-10 775.5,-30 795.5,-30 795.5,-10 775.5,-10"/>
<text text-anchor="start" x="799.23" y="-15.4" font-family="Times-12" font-size="14.00"> &#160;Exports</text>
<g id="clust1" class="cluster">
<title>cluster_AppModule</title>
<polygon fill="none" stroke="black" stroke-dasharray="1,5" points="8,-70 8,-263 374,-263 374,-70 8,-70"/>
</g>
<g id="clust3" class="cluster">
<title>cluster_AppModule_imports</title>
<polygon fill="none" stroke="black" points="240,-78 240,-198 366,-198 366,-78 240,-78"/>
</g>
<g id="clust6" class="cluster">
<title>cluster_AppModule_providers</title>
<polygon fill="none" stroke="black" points="16,-146 16,-198 232,-198 232,-146 16,-146"/>
</g>
<g id="clust7" class="cluster">
<title>cluster_AuthModule</title>
<polygon fill="none" stroke="black" stroke-dasharray="1,5" points="382,-70 382,-138 1227,-138 1227,-70 382,-70"/>
</g>
<g id="clust10" class="cluster">
<title>cluster_AuthModule_exports</title>
<polygon fill="none" stroke="black" points="1117,-78 1117,-130 1219,-130 1219,-78 1117,-78"/>
</g>
<g id="clust12" class="cluster">
<title>cluster_AuthModule_providers</title>
<polygon fill="none" stroke="black" points="390,-78 390,-130 1109,-130 1109,-78 390,-78"/>
</g>
<!-- AuthModule -->
<g id="node1" class="node">
<title>AuthModule</title>
<polygon fill="#8dd3c7" stroke="black" points="357.55,-190 354.55,-194 333.55,-194 330.55,-190 270.45,-190 270.45,-154 357.55,-154 357.55,-190"/>
<text text-anchor="middle" x="314" y="-167.8" font-family="Times,serif" font-size="14.00">AuthModule</text>
</g>
<!-- AppModule -->
<g id="node3" class="node">
<title>AppModule</title>
<polygon fill="#8dd3c7" stroke="black" points="292.66,-255 289.66,-259 268.66,-259 265.66,-255 209.34,-255 209.34,-219 292.66,-219 292.66,-255"/>
<text text-anchor="middle" x="251" y="-232.8" font-family="Times,serif" font-size="14.00">AppModule</text>
</g>
<!-- AuthModule&#45;&gt;AppModule -->
<g id="edge1" class="edge">
<title>AuthModule&#45;&gt;AppModule</title>
<path fill="none" stroke="black" d="M281.53,-190.11C281.53,-190.11 281.53,-208.99 281.53,-208.99"/>
<polygon fill="black" stroke="black" points="278.03,-208.99 281.53,-218.99 285.03,-208.99 278.03,-208.99"/>
</g>
<!-- JwtStrategy  -->
<g id="node5" class="node">
<title>JwtStrategy </title>
<polygon fill="#fb8072" stroke="black" points="1210.6,-122 1125.4,-122 1125.4,-86 1210.6,-86 1210.6,-122"/>
<text text-anchor="middle" x="1168" y="-99.8" font-family="Times,serif" font-size="14.00">JwtStrategy </text>
</g>
<!-- AuthModule&#45;&gt;JwtStrategy  -->
<g id="edge5" class="edge">
<title>AuthModule&#45;&gt;JwtStrategy </title>
<path fill="none" stroke="black" stroke-dasharray="5,2" d="M357.82,-185C532.27,-185 1168,-185 1168,-185 1168,-185 1168,-132.38 1168,-132.38"/>
<polygon fill="black" stroke="black" points="1171.5,-132.38 1168,-122.38 1164.5,-132.38 1171.5,-132.38"/>
</g>
<!-- DatabaseModule -->
<g id="node2" class="node">
<title>DatabaseModule</title>
<polygon fill="#8dd3c7" stroke="black" points="358.35,-122 355.35,-126 334.35,-126 331.35,-122 247.65,-122 247.65,-86 358.35,-86 358.35,-122"/>
<text text-anchor="middle" x="303" y="-99.8" font-family="Times,serif" font-size="14.00">DatabaseModule</text>
</g>
<!-- DatabaseModule&#45;&gt;AuthModule -->
<g id="edge4" class="edge">
<title>DatabaseModule&#45;&gt;AuthModule</title>
<path fill="none" stroke="black" d="M314,-122.22C314,-122.22 314,-143.73 314,-143.73"/>
<polygon fill="black" stroke="black" points="310.5,-143.73 314,-153.73 317.5,-143.73 310.5,-143.73"/>
</g>
<!-- DatabaseModule&#45;&gt;AppModule -->
<g id="edge2" class="edge">
<title>DatabaseModule&#45;&gt;AppModule</title>
<path fill="none" stroke="black" d="M258.9,-122.21C258.9,-122.21 258.9,-208.58 258.9,-208.58"/>
<polygon fill="black" stroke="black" points="255.4,-208.58 258.9,-218.58 262.4,-208.58 255.4,-208.58"/>
</g>
<!-- CustomThrottlerGuard -->
<g id="node4" class="node">
<title>CustomThrottlerGuard</title>
<ellipse fill="#fdb462" stroke="black" cx="124" cy="-172" rx="99.58" ry="18"/>
<text text-anchor="middle" x="124" y="-167.8" font-family="Times,serif" font-size="14.00">CustomThrottlerGuard</text>
</g>
<!-- CustomThrottlerGuard&#45;&gt;AppModule -->
<g id="edge3" class="edge">
<title>CustomThrottlerGuard&#45;&gt;AppModule</title>
<path fill="none" stroke="black" d="M216.36,-178.96C216.36,-178.96 216.36,-208.81 216.36,-208.81"/>
<polygon fill="black" stroke="black" points="212.86,-208.81 216.36,-218.81 219.86,-208.81 212.86,-208.81"/>
</g>
<!-- AuthService -->
<g id="node6" class="node">
<title>AuthService</title>
<ellipse fill="#fdb462" stroke="black" cx="1042" cy="-104" rx="59.11" ry="18"/>
<text text-anchor="middle" x="1042" y="-99.8" font-family="Times,serif" font-size="14.00">AuthService</text>
</g>
<!-- AuthService&#45;&gt;AuthModule -->
<g id="edge6" class="edge">
<title>AuthService&#45;&gt;AuthModule</title>
<path fill="none" stroke="black" d="M1042,-122.01C1042,-144.49 1042,-180 1042,-180 1042,-180 367.63,-180 367.63,-180"/>
<polygon fill="black" stroke="black" points="367.63,-176.5 357.63,-180 367.63,-183.5 367.63,-176.5"/>
</g>
<!-- BcryptProvider -->
<g id="node7" class="node">
<title>BcryptProvider</title>
<ellipse fill="#fdb462" stroke="black" cx="894" cy="-104" rx="70.65" ry="18"/>
<text text-anchor="middle" x="894" y="-99.8" font-family="Times,serif" font-size="14.00">BcryptProvider</text>
</g>
<!-- BcryptProvider&#45;&gt;AuthModule -->
<g id="edge7" class="edge">
<title>BcryptProvider&#45;&gt;AuthModule</title>
<path fill="none" stroke="black" d="M894,-122.28C894,-143.32 894,-175 894,-175 894,-175 367.59,-175 367.59,-175"/>
<polygon fill="black" stroke="black" points="367.59,-171.5 357.59,-175 367.59,-178.5 367.59,-171.5"/>
</g>
<!-- JwtProvider -->
<g id="node8" class="node">
<title>JwtProvider</title>
<ellipse fill="#fdb462" stroke="black" cx="748" cy="-104" rx="57.9" ry="18"/>
<text text-anchor="middle" x="748" y="-99.8" font-family="Times,serif" font-size="14.00">JwtProvider</text>
</g>
<!-- JwtProvider&#45;&gt;AuthModule -->
<g id="edge8" class="edge">
<title>JwtProvider&#45;&gt;AuthModule</title>
<path fill="none" stroke="black" d="M748,-122.03C748,-141.58 748,-170 748,-170 748,-170 367.6,-170 367.6,-170"/>
<polygon fill="black" stroke="black" points="367.6,-166.5 357.6,-170 367.6,-173.5 367.6,-166.5"/>
</g>
<!-- JwtStrategy -->
<g id="node9" class="node">
<title>JwtStrategy</title>
<ellipse fill="#fdb462" stroke="black" cx="616" cy="-104" rx="56.76" ry="18"/>
<text text-anchor="middle" x="616" y="-99.8" font-family="Times,serif" font-size="14.00">JwtStrategy</text>
</g>
<!-- JwtStrategy&#45;&gt;AuthModule -->
<g id="edge9" class="edge">
<title>JwtStrategy&#45;&gt;AuthModule</title>
<path fill="none" stroke="black" d="M616,-122.3C616,-140.27 616,-165 616,-165 616,-165 367.59,-165 367.59,-165"/>
<polygon fill="black" stroke="black" points="367.59,-161.5 357.59,-165 367.59,-168.5 367.59,-161.5"/>
</g>
<!-- UserRepository -->
<g id="node10" class="node">
<title>UserRepository</title>
<ellipse fill="#fdb462" stroke="black" cx="470" cy="-104" rx="71.79" ry="18"/>
<text text-anchor="middle" x="470" y="-99.8" font-family="Times,serif" font-size="14.00">UserRepository</text>
</g>
<!-- UserRepository&#45;&gt;AuthModule -->
<g id="edge10" class="edge">
<title>UserRepository&#45;&gt;AuthModule</title>
<path fill="none" stroke="black" d="M470,-122.03C470,-138.4 470,-160 470,-160 470,-160 367.87,-160 367.87,-160"/>
<polygon fill="black" stroke="black" points="367.87,-156.5 357.87,-160 367.87,-163.5 367.87,-156.5"/>
</g>
</g>
</svg>
