<?xml version="1.0" encoding="UTF-8" standalone="no"?>
<!DOCTYPE svg PUBLIC "-//W3C//DTD SVG 1.1//EN"
 "http://www.w3.org/Graphics/SVG/1.1/DTD/svg11.dtd">
<!-- Generated by graphviz version 2.47.0 (20210316.0004)
 -->
<!-- Title: dependencies Pages: 1 -->
<svg width="893pt" height="284pt"
 viewBox="0.00 0.00 893.00 284.00" xmlns="http://www.w3.org/2000/svg" xmlns:xlink="http://www.w3.org/1999/xlink">
<g id="graph0" class="graph" transform="scale(1 1) rotate(0) translate(4 280)">
<title>dependencies</title>
<polygon fill="white" stroke="transparent" points="-4,4 -4,-280 889,-280 889,4 -4,4"/>
<text text-anchor="start" x="421.51" y="-42.4" font-family="Times-12" font-weight="bold" font-size="14.00">Legend</text>
<polygon fill="#ffffb3" stroke="transparent" points="208.5,-10 208.5,-30 228.5,-30 228.5,-10 208.5,-10"/>
<text text-anchor="start" x="232.13" y="-15.4" font-family="Times-12" font-size="14.00"> &#160;Declarations</text>
<polygon fill="#8dd3c7" stroke="transparent" points="321.5,-10 321.5,-30 341.5,-30 341.5,-10 321.5,-10"/>
<text text-anchor="start" x="345.23" y="-15.4" font-family="Times-12" font-size="14.00"> &#160;Module</text>
<polygon fill="#80b1d3" stroke="transparent" points="407.5,-10 407.5,-30 427.5,-30 427.5,-10 407.5,-10"/>
<text text-anchor="start" x="431.28" y="-15.4" font-family="Times-12" font-size="14.00"> &#160;Bootstrap</text>
<polygon fill="#fdb462" stroke="transparent" points="504.5,-10 504.5,-30 524.5,-30 524.5,-10 504.5,-10"/>
<text text-anchor="start" x="528.17" y="-15.4" font-family="Times-12" font-size="14.00"> &#160;Providers</text>
<polygon fill="#fb8072" stroke="transparent" points="600.5,-10 600.5,-30 620.5,-30 620.5,-10 600.5,-10"/>
<text text-anchor="start" x="624.23" y="-15.4" font-family="Times-12" font-size="14.00"> &#160;Exports</text>
<g id="clust1" class="cluster">
<title>cluster_AuthModule</title>
<polygon fill="none" stroke="black" stroke-dasharray="1,5" points="8,-70 8,-268 877,-268 877,-70 8,-70"/>
</g>
<g id="clust3" class="cluster">
<title>cluster_AuthModule_imports</title>
<polygon fill="none" stroke="black" points="743,-78 743,-130 869,-130 869,-78 743,-78"/>
</g>
<g id="clust4" class="cluster">
<title>cluster_AuthModule_exports</title>
<polygon fill="none" stroke="black" points="396,-208 396,-260 498,-260 498,-208 396,-208"/>
</g>
<g id="clust6" class="cluster">
<title>cluster_AuthModule_providers</title>
<polygon fill="none" stroke="black" points="16,-78 16,-130 735,-130 735,-78 16,-78"/>
</g>
<!-- DatabaseModule -->
<g id="node1" class="node">
<title>DatabaseModule</title>
<polygon fill="#8dd3c7" stroke="black" points="861.35,-122 858.35,-126 837.35,-126 834.35,-122 750.65,-122 750.65,-86 861.35,-86 861.35,-122"/>
<text text-anchor="middle" x="806" y="-99.8" font-family="Times,serif" font-size="14.00">DatabaseModule</text>
</g>
<!-- AuthModule -->
<g id="node2" class="node">
<title>AuthModule</title>
<polygon fill="#8dd3c7" stroke="black" points="490.55,-187 487.55,-191 466.55,-191 463.55,-187 403.45,-187 403.45,-151 490.55,-151 490.55,-187"/>
<text text-anchor="middle" x="447" y="-164.8" font-family="Times,serif" font-size="14.00">AuthModule</text>
</g>
<!-- DatabaseModule&#45;&gt;AuthModule -->
<g id="edge1" class="edge">
<title>DatabaseModule&#45;&gt;AuthModule</title>
<path fill="none" stroke="black" d="M806,-122.28C806,-143.32 806,-175 806,-175 806,-175 500.66,-175 500.66,-175"/>
<polygon fill="black" stroke="black" points="500.66,-171.5 490.66,-175 500.66,-178.5 500.66,-171.5"/>
</g>
<!-- JwtStrategy  -->
<g id="node3" class="node">
<title>JwtStrategy </title>
<polygon fill="#fb8072" stroke="black" points="489.6,-252 404.4,-252 404.4,-216 489.6,-216 489.6,-252"/>
<text text-anchor="middle" x="447" y="-229.8" font-family="Times,serif" font-size="14.00">JwtStrategy </text>
</g>
<!-- AuthModule&#45;&gt;JwtStrategy  -->
<g id="edge2" class="edge">
<title>AuthModule&#45;&gt;JwtStrategy </title>
<path fill="none" stroke="black" stroke-dasharray="5,2" d="M447,-187.11C447,-187.11 447,-205.99 447,-205.99"/>
<polygon fill="black" stroke="black" points="443.5,-205.99 447,-215.99 450.5,-205.99 443.5,-205.99"/>
</g>
<!-- AuthService -->
<g id="node4" class="node">
<title>AuthService</title>
<ellipse fill="#fdb462" stroke="black" cx="668" cy="-104" rx="59.11" ry="18"/>
<text text-anchor="middle" x="668" y="-99.8" font-family="Times,serif" font-size="14.00">AuthService</text>
</g>
<!-- AuthService&#45;&gt;AuthModule -->
<g id="edge3" class="edge">
<title>AuthService&#45;&gt;AuthModule</title>
<path fill="none" stroke="black" d="M668,-122.02C668,-139.37 668,-163 668,-163 668,-163 500.66,-163 500.66,-163"/>
<polygon fill="black" stroke="black" points="500.66,-159.5 490.66,-163 500.66,-166.5 500.66,-159.5"/>
</g>
<!-- BcryptProvider -->
<g id="node5" class="node">
<title>BcryptProvider</title>
<ellipse fill="#fdb462" stroke="black" cx="520" cy="-104" rx="70.65" ry="18"/>
<text text-anchor="middle" x="520" y="-99.8" font-family="Times,serif" font-size="14.00">BcryptProvider</text>
</g>
<!-- BcryptProvider&#45;&gt;AuthModule -->
<g id="edge4" class="edge">
<title>BcryptProvider&#45;&gt;AuthModule</title>
<path fill="none" stroke="black" d="M470.1,-116.84C470.1,-116.84 470.1,-140.52 470.1,-140.52"/>
<polygon fill="black" stroke="black" points="466.6,-140.52 470.1,-150.52 473.6,-140.52 466.6,-140.52"/>
</g>
<!-- JwtProvider -->
<g id="node6" class="node">
<title>JwtProvider</title>
<ellipse fill="#fdb462" stroke="black" cx="374" cy="-104" rx="57.9" ry="18"/>
<text text-anchor="middle" x="374" y="-99.8" font-family="Times,serif" font-size="14.00">JwtProvider</text>
</g>
<!-- JwtProvider&#45;&gt;AuthModule -->
<g id="edge5" class="edge">
<title>JwtProvider&#45;&gt;AuthModule</title>
<path fill="none" stroke="black" d="M417.46,-115.92C417.46,-115.92 417.46,-140.77 417.46,-140.77"/>
<polygon fill="black" stroke="black" points="413.96,-140.77 417.46,-150.77 420.96,-140.77 413.96,-140.77"/>
</g>
<!-- JwtStrategy -->
<g id="node7" class="node">
<title>JwtStrategy</title>
<ellipse fill="#fdb462" stroke="black" cx="242" cy="-104" rx="56.76" ry="18"/>
<text text-anchor="middle" x="242" y="-99.8" font-family="Times,serif" font-size="14.00">JwtStrategy</text>
</g>
<!-- JwtStrategy&#45;&gt;AuthModule -->
<g id="edge6" class="edge">
<title>JwtStrategy&#45;&gt;AuthModule</title>
<path fill="none" stroke="black" d="M242,-122.02C242,-139.37 242,-163 242,-163 242,-163 393.27,-163 393.27,-163"/>
<polygon fill="black" stroke="black" points="393.27,-166.5 403.27,-163 393.27,-159.5 393.27,-166.5"/>
</g>
<!-- UserRepository -->
<g id="node8" class="node">
<title>UserRepository</title>
<ellipse fill="#fdb462" stroke="black" cx="96" cy="-104" rx="71.79" ry="18"/>
<text text-anchor="middle" x="96" y="-99.8" font-family="Times,serif" font-size="14.00">UserRepository</text>
</g>
<!-- UserRepository&#45;&gt;AuthModule -->
<g id="edge7" class="edge">
<title>UserRepository&#45;&gt;AuthModule</title>
<path fill="none" stroke="black" d="M96,-122.28C96,-143.32 96,-175 96,-175 96,-175 393.26,-175 393.26,-175"/>
<polygon fill="black" stroke="black" points="393.26,-178.5 403.26,-175 393.26,-171.5 393.26,-178.5"/>
</g>
</g>
</svg>
